<svg id="visual" viewBox="0 0 1920 1080" width="1920" height="1080" xmlns="http://www.w3.org/2000/svg" xmlns:xlink="http://www.w3.org/1999/xlink" version="1.1"><path d="M0 329L26.7 333C53.3 337 106.7 345 160 361.2C213.3 377.3 266.7 401.7 320 407.7C373.3 413.7 426.7 401.3 480 400.5C533.3 399.7 586.7 410.3 640 407C693.3 403.7 746.7 386.3 800 369.8C853.3 353.3 906.7 337.7 960 345.7C1013.3 353.7 1066.7 385.3 1120 389C1173.3 392.7 1226.7 368.3 1280 370.3C1333.3 372.3 1386.7 400.7 1440 401C1493.3 401.3 1546.7 373.7 1600 356C1653.3 338.3 1706.7 330.7 1760 332.5C1813.3 334.3 1866.7 345.7 1893.3 351.3L1920 357L1920 0L1893.3 0C1866.7 0 1813.3 0 1760 0C1706.7 0 1653.3 0 1600 0C1546.7 0 1493.3 0 1440 0C1386.7 0 1333.3 0 1280 0C1226.7 0 1173.3 0 1120 0C1066.7 0 1013.3 0 960 0C906.7 0 853.3 0 800 0C746.7 0 693.3 0 640 0C586.7 0 533.3 0 480 0C426.7 0 373.3 0 320 0C266.7 0 213.3 0 160 0C106.7 0 53.3 0 26.7 0L0 0Z" fill="#3f9696"></path><path d="M0 351L26.7 337.3C53.3 323.7 106.7 296.3 160 287.5C213.3 278.7 266.7 288.3 320 300.7C373.3 313 426.7 328 480 322.7C533.3 317.3 586.7 291.7 640 278.5C693.3 265.3 746.7 264.7 800 265.3C853.3 266 906.7 268 960 281.8C1013.3 295.7 1066.7 321.3 1120 335C1173.3 348.7 1226.7 350.3 1280 337.3C1333.3 324.3 1386.7 296.7 1440 281.5C1493.3 266.3 1546.7 263.7 1600 260.3C1653.3 257 1706.7 253 1760 256.2C1813.3 259.3 1866.7 269.7 1893.3 274.8L1920 280L1920 0L1893.3 0C1866.7 0 1813.3 0 1760 0C1706.7 0 1653.3 0 1600 0C1546.7 0 1493.3 0 1440 0C1386.7 0 1333.3 0 1280 0C1226.7 0 1173.3 0 1120 0C1066.7 0 1013.3 0 960 0C906.7 0 853.3 0 800 0C746.7 0 693.3 0 640 0C586.7 0 533.3 0 480 0C426.7 0 373.3 0 320 0C266.7 0 213.3 0 160 0C106.7 0 53.3 0 26.7 0L0 0Z" fill="#378484"></path><path d="M0 291L26.7 275.5C53.3 260 106.7 229 160 224.2C213.3 219.3 266.7 240.7 320 247.8C373.3 255 426.7 248 480 252.2C533.3 256.3 586.7 271.7 640 264C693.3 256.3 746.7 225.7 800 219.5C853.3 213.3 906.7 231.7 960 240.8C1013.3 250 1066.7 250 1120 248.5C1173.3 247 1226.7 244 1280 235.2C1333.3 226.3 1386.7 211.7 1440 201.2C1493.3 190.7 1546.7 184.3 1600 196.2C1653.3 208 1706.7 238 1760 244C1813.3 250 1866.7 232 1893.3 223L1920 214L1920 0L1893.3 0C1866.7 0 1813.3 0 1760 0C1706.7 0 1653.3 0 1600 0C1546.7 0 1493.3 0 1440 0C1386.7 0 1333.3 0 1280 0C1226.7 0 1173.3 0 1120 0C1066.7 0 1013.3 0 960 0C906.7 0 853.3 0 800 0C746.7 0 693.3 0 640 0C586.7 0 533.3 0 480 0C426.7 0 373.3 0 320 0C266.7 0 213.3 0 160 0C106.7 0 53.3 0 26.7 0L0 0Z" fill="#307272"></path><path d="M0 122L26.7 123.3C53.3 124.7 106.7 127.3 160 141.5C213.3 155.7 266.7 181.3 320 187.2C373.3 193 426.7 179 480 174.7C533.3 170.3 586.7 175.7 640 177C693.3 178.3 746.7 175.7 800 179.7C853.3 183.7 906.7 194.3 960 196C1013.3 197.7 1066.7 190.3 1120 187.8C1173.3 185.3 1226.7 187.7 1280 179.3C1333.3 171 1386.7 152 1440 152.7C1493.3 153.3 1546.7 173.7 1600 177.2C1653.3 180.7 1706.7 167.3 1760 157.2C1813.3 147 1866.7 140 1893.3 136.5L1920 133L1920 0L1893.3 0C1866.7 0 1813.3 0 1760 0C1706.7 0 1653.3 0 1600 0C1546.7 0 1493.3 0 1440 0C1386.7 0 1333.3 0 1280 0C1226.7 0 1173.3 0 1120 0C1066.7 0 1013.3 0 960 0C906.7 0 853.3 0 800 0C746.7 0 693.3 0 640 0C586.7 0 533.3 0 480 0C426.7 0 373.3 0 320 0C266.7 0 213.3 0 160 0C106.7 0 53.3 0 26.7 0L0 0Z" fill="#286060"></path><path d="M0 62L26.7 73.8C53.3 85.7 106.7 109.3 160 111.2C213.3 113 266.7 93 320 79.5C373.3 66 426.7 59 480 57.5C533.3 56 586.7 60 640 63.3C693.3 66.7 746.7 69.3 800 80.5C853.3 91.7 906.7 111.3 960 113.7C1013.3 116 1066.7 101 1120 98C1173.3 95 1226.7 104 1280 99.3C1333.3 94.7 1386.7 76.3 1440 72.7C1493.3 69 1546.7 80 1600 78.3C1653.3 76.7 1706.7 62.3 1760 69.3C1813.3 76.3 1866.7 104.7 1893.3 118.8L1920 133L1920 0L1893.3 0C1866.7 0 1813.3 0 1760 0C1706.7 0 1653.3 0 1600 0C1546.7 0 1493.3 0 1440 0C1386.7 0 1333.3 0 1280 0C1226.7 0 1173.3 0 1120 0C1066.7 0 1013.3 0 960 0C906.7 0 853.3 0 800 0C746.7 0 693.3 0 640 0C586.7 0 533.3 0 480 0C426.7 0 373.3 0 320 0C266.7 0 213.3 0 160 0C106.7 0 53.3 0 26.7 0L0 0Z" fill="#214f4f"></path></svg>