<svg id="visual" viewBox="0 0 900 600" width="900" height="600" xmlns="http://www.w3.org/2000/svg" xmlns:xlink="http://www.w3.org/1999/xlink" version="1.1"><path d="M0 437L21.5 425.2C43 413.3 86 389.7 128.8 379.3C171.7 369 214.3 372 257.2 380.7C300 389.3 343 403.7 385.8 413C428.7 422.3 471.3 426.7 514.2 426.2C557 425.7 600 420.3 642.8 410.7C685.7 401 728.3 387 771.2 379.2C814 371.3 857 369.7 878.5 368.8L900 368L900 601L878.5 601C857 601 814 601 771.2 601C728.3 601 685.7 601 642.8 601C600 601 557 601 514.2 601C471.3 601 428.7 601 385.8 601C343 601 300 601 257.2 601C214.3 601 171.7 601 128.8 601C86 601 43 601 21.5 601L0 601Z" fill="#275e5e"></path><path d="M0 457L21.5 450.8C43 444.7 86 432.3 128.8 430.8C171.7 429.3 214.3 438.7 257.2 441C300 443.3 343 438.7 385.8 442.2C428.7 445.7 471.3 457.3 514.2 463.5C557 469.7 600 470.3 642.8 458.3C685.7 446.3 728.3 421.7 771.2 409.5C814 397.3 857 397.7 878.5 397.8L900 398L900 601L878.5 601C857 601 814 601 771.2 601C728.3 601 685.7 601 642.8 601C600 601 557 601 514.2 601C471.3 601 428.7 601 385.8 601C343 601 300 601 257.2 601C214.3 601 171.7 601 128.8 601C86 601 43 601 21.5 601L0 601Z" fill="#457d7c"></path><path d="M0 475L21.5 480C43 485 86 495 128.8 500.8C171.7 506.7 214.3 508.3 257.2 499.5C300 490.7 343 471.3 385.8 467C428.7 462.7 471.3 473.3 514.2 478.3C557 483.3 600 482.7 642.8 480C685.7 477.3 728.3 472.7 771.2 475.2C814 477.7 857 487.3 878.5 492.2L900 497L900 601L878.5 601C857 601 814 601 771.2 601C728.3 601 685.7 601 642.8 601C600 601 557 601 514.2 601C471.3 601 428.7 601 385.8 601C343 601 300 601 257.2 601C214.3 601 171.7 601 128.8 601C86 601 43 601 21.5 601L0 601Z" fill="#649d9c"></path><path d="M0 527L21.5 523.7C43 520.3 86 513.7 128.8 510C171.7 506.3 214.3 505.7 257.2 507C300 508.3 343 511.7 385.8 509.5C428.7 507.3 471.3 499.7 514.2 499.8C557 500 600 508 642.8 508.5C685.7 509 728.3 502 771.2 498.7C814 495.3 857 495.7 878.5 495.8L900 496L900 601L878.5 601C857 601 814 601 771.2 601C728.3 601 685.7 601 642.8 601C600 601 557 601 514.2 601C471.3 601 428.7 601 385.8 601C343 601 300 601 257.2 601C214.3 601 171.7 601 128.8 601C86 601 43 601 21.5 601L0 601Z" fill="#83bebd"></path><path d="M0 554L21.5 555C43 556 86 558 128.8 553.8C171.7 549.7 214.3 539.3 257.2 540.2C300 541 343 553 385.8 556.3C428.7 559.7 471.3 554.3 514.2 548.7C557 543 600 537 642.8 538.5C685.7 540 728.3 549 771.2 554.5C814 560 857 562 878.5 563L900 564L900 601L878.5 601C857 601 814 601 771.2 601C728.3 601 685.7 601 642.8 601C600 601 557 601 514.2 601C471.3 601 428.7 601 385.8 601C343 601 300 601 257.2 601C214.3 601 171.7 601 128.8 601C86 601 43 601 21.5 601L0 601Z" fill="#a3e0e0"></path></svg>