<svg id="visual" viewBox="0 0 1920 1080" width="1920" height="1080" xmlns="http://www.w3.org/2000/svg" xmlns:xlink="http://www.w3.org/1999/xlink" version="1.1"><path d="M0 749L26.7 745C53.3 741 106.7 733 160 716.8C213.3 700.7 266.7 676.3 320 670.3C373.3 664.3 426.7 676.7 480 677.5C533.3 678.3 586.7 667.7 640 671C693.3 674.3 746.7 691.7 800 708.2C853.3 724.7 906.7 740.3 960 732.3C1013.3 724.3 1066.7 692.7 1120 689C1173.3 685.3 1226.7 709.7 1280 707.7C1333.3 705.7 1386.7 677.3 1440 677C1493.3 676.7 1546.7 704.3 1600 722C1653.3 739.7 1706.7 747.3 1760 745.5C1813.3 743.7 1866.7 732.3 1893.3 726.7L1920 721L1920 1081L1893.3 1081C1866.7 1081 1813.3 1081 1760 1081C1706.7 1081 1653.3 1081 1600 1081C1546.7 1081 1493.3 1081 1440 1081C1386.7 1081 1333.3 1081 1280 1081C1226.7 1081 1173.3 1081 1120 1081C1066.7 1081 1013.3 1081 960 1081C906.7 1081 853.3 1081 800 1081C746.7 1081 693.3 1081 640 1081C586.7 1081 533.3 1081 480 1081C426.7 1081 373.3 1081 320 1081C266.7 1081 213.3 1081 160 1081C106.7 1081 53.3 1081 26.7 1081L0 1081Z" fill="#3f9696"></path><path d="M0 727L26.7 740.7C53.3 754.3 106.7 781.7 160 790.5C213.3 799.3 266.7 789.7 320 777.3C373.3 765 426.7 750 480 755.3C533.3 760.7 586.7 786.3 640 799.5C693.3 812.7 746.7 813.3 800 812.7C853.3 812 906.7 810 960 796.2C1013.3 782.3 1066.7 756.7 1120 743C1173.3 729.3 1226.7 727.7 1280 740.7C1333.3 753.7 1386.7 781.3 1440 796.5C1493.3 811.7 1546.7 814.3 1600 817.7C1653.3 821 1706.7 825 1760 821.8C1813.3 818.7 1866.7 808.3 1893.3 803.2L1920 798L1920 1081L1893.3 1081C1866.7 1081 1813.3 1081 1760 1081C1706.7 1081 1653.3 1081 1600 1081C1546.7 1081 1493.3 1081 1440 1081C1386.7 1081 1333.3 1081 1280 1081C1226.7 1081 1173.3 1081 1120 1081C1066.7 1081 1013.3 1081 960 1081C906.7 1081 853.3 1081 800 1081C746.7 1081 693.3 1081 640 1081C586.7 1081 533.3 1081 480 1081C426.7 1081 373.3 1081 320 1081C266.7 1081 213.3 1081 160 1081C106.7 1081 53.3 1081 26.7 1081L0 1081Z" fill="#378484"></path><path d="M0 787L26.7 802.5C53.3 818 106.7 849 160 853.8C213.3 858.7 266.7 837.3 320 830.2C373.3 823 426.7 830 480 825.8C533.3 821.7 586.7 806.3 640 814C693.3 821.7 746.7 852.3 800 858.5C853.3 864.7 906.7 846.3 960 837.2C1013.3 828 1066.7 828 1120 829.5C1173.3 831 1226.7 834 1280 842.8C1333.3 851.7 1386.7 866.3 1440 876.8C1493.3 887.3 1546.7 893.7 1600 881.8C1653.3 870 1706.7 840 1760 834C1813.3 828 1866.7 846 1893.3 855L1920 864L1920 1081L1893.3 1081C1866.7 1081 1813.3 1081 1760 1081C1706.7 1081 1653.3 1081 1600 1081C1546.7 1081 1493.3 1081 1440 1081C1386.7 1081 1333.3 1081 1280 1081C1226.7 1081 1173.3 1081 1120 1081C1066.7 1081 1013.3 1081 960 1081C906.7 1081 853.3 1081 800 1081C746.7 1081 693.3 1081 640 1081C586.7 1081 533.3 1081 480 1081C426.7 1081 373.3 1081 320 1081C266.7 1081 213.3 1081 160 1081C106.7 1081 53.3 1081 26.7 1081L0 1081Z" fill="#307272"></path><path d="M0 956L26.7 954.7C53.3 953.3 106.7 950.7 160 936.5C213.3 922.3 266.7 896.7 320 890.8C373.3 885 426.7 899 480 903.3C533.3 907.7 586.7 902.3 640 901C693.3 899.7 746.7 902.3 800 898.3C853.3 894.3 906.7 883.7 960 882C1013.3 880.3 1066.7 887.7 1120 890.2C1173.3 892.7 1226.7 890.3 1280 898.7C1333.3 907 1386.7 926 1440 925.3C1493.3 924.7 1546.7 904.3 1600 900.8C1653.3 897.3 1706.7 910.7 1760 920.8C1813.3 931 1866.7 938 1893.3 941.5L1920 945L1920 1081L1893.3 1081C1866.7 1081 1813.3 1081 1760 1081C1706.7 1081 1653.3 1081 1600 1081C1546.7 1081 1493.3 1081 1440 1081C1386.7 1081 1333.3 1081 1280 1081C1226.7 1081 1173.3 1081 1120 1081C1066.7 1081 1013.3 1081 960 1081C906.7 1081 853.3 1081 800 1081C746.7 1081 693.3 1081 640 1081C586.7 1081 533.3 1081 480 1081C426.7 1081 373.3 1081 320 1081C266.7 1081 213.3 1081 160 1081C106.7 1081 53.3 1081 26.7 1081L0 1081Z" fill="#286060"></path><path d="M0 1016L26.7 1004.2C53.3 992.3 106.7 968.7 160 966.8C213.3 965 266.7 985 320 998.5C373.3 1012 426.7 1019 480 1020.5C533.3 1022 586.7 1018 640 1014.7C693.3 1011.3 746.7 1008.7 800 997.5C853.3 986.3 906.7 966.7 960 964.3C1013.3 962 1066.7 977 1120 980C1173.3 983 1226.7 974 1280 978.7C1333.3 983.3 1386.7 1001.7 1440 1005.3C1493.3 1009 1546.7 998 1600 999.7C1653.3 1001.3 1706.7 1015.7 1760 1008.7C1813.3 1001.7 1866.7 973.3 1893.3 959.2L1920 945L1920 1081L1893.3 1081C1866.7 1081 1813.3 1081 1760 1081C1706.7 1081 1653.3 1081 1600 1081C1546.7 1081 1493.3 1081 1440 1081C1386.7 1081 1333.3 1081 1280 1081C1226.7 1081 1173.3 1081 1120 1081C1066.7 1081 1013.3 1081 960 1081C906.7 1081 853.3 1081 800 1081C746.7 1081 693.3 1081 640 1081C586.7 1081 533.3 1081 480 1081C426.7 1081 373.3 1081 320 1081C266.7 1081 213.3 1081 160 1081C106.7 1081 53.3 1081 26.7 1081L0 1081Z" fill="#214f4f"></path></svg>