<svg id="visual" viewBox="0 0 1920 1080" width="1920" height="1080" xmlns="http://www.w3.org/2000/svg" xmlns:xlink="http://www.w3.org/1999/xlink" version="1.1"><path d="M0 520L29.2 533.5C58.3 547 116.7 574 174.8 566.3C233 558.7 291 516.3 349.2 497.2C407.3 478 465.7 482 523.8 491.3C582 500.7 640 515.3 698.2 527.7C756.3 540 814.7 550 872.8 539.8C931 529.7 989 499.3 1047.2 487.7C1105.3 476 1163.7 483 1221.8 504.5C1280 526 1338 562 1396.2 562.2C1454.3 562.3 1512.7 526.7 1570.8 526.3C1629 526 1687 561 1745.2 557.2C1803.3 553.3 1861.7 510.7 1890.8 489.3L1920 468L1920 0L1890.8 0C1861.7 0 1803.3 0 1745.2 0C1687 0 1629 0 1570.8 0C1512.7 0 1454.3 0 1396.2 0C1338 0 1280 0 1221.8 0C1163.7 0 1105.3 0 1047.2 0C989 0 931 0 872.8 0C814.7 0 756.3 0 698.2 0C640 0 582 0 523.8 0C465.7 0 407.3 0 349.2 0C291 0 233 0 174.8 0C116.7 0 58.3 0 29.2 0L0 0Z" fill="#3f9696"></path><path d="M0 447L29.2 445.2C58.3 443.3 116.7 439.7 174.8 420.3C233 401 291 366 349.2 364.2C407.3 362.3 465.7 393.7 523.8 412.8C582 432 640 439 698.2 422.8C756.3 406.7 814.7 367.3 872.8 367.8C931 368.3 989 408.7 1047.2 435C1105.3 461.3 1163.7 473.7 1221.8 456C1280 438.3 1338 390.7 1396.2 363C1454.3 335.3 1512.7 327.7 1570.8 334.3C1629 341 1687 362 1745.2 370C1803.3 378 1861.7 373 1890.8 370.5L1920 368L1920 0L1890.8 0C1861.7 0 1803.3 0 1745.2 0C1687 0 1629 0 1570.8 0C1512.7 0 1454.3 0 1396.2 0C1338 0 1280 0 1221.8 0C1163.7 0 1105.3 0 1047.2 0C989 0 931 0 872.8 0C814.7 0 756.3 0 698.2 0C640 0 582 0 523.8 0C465.7 0 407.3 0 349.2 0C291 0 233 0 174.8 0C116.7 0 58.3 0 29.2 0L0 0Z" fill="#357e7e"></path><path d="M0 194L29.2 206.7C58.3 219.3 116.7 244.7 174.8 272C233 299.3 291 328.7 349.2 324.8C407.3 321 465.7 284 523.8 275.8C582 267.7 640 288.3 698.2 294.3C756.3 300.3 814.7 291.7 872.8 282.3C931 273 989 263 1047.2 260.5C1105.3 258 1163.7 263 1221.8 274.3C1280 285.7 1338 303.3 1396.2 296C1454.3 288.7 1512.7 256.3 1570.8 255.8C1629 255.3 1687 286.7 1745.2 299.5C1803.3 312.3 1861.7 306.7 1890.8 303.8L1920 301L1920 0L1890.8 0C1861.7 0 1803.3 0 1745.2 0C1687 0 1629 0 1570.8 0C1512.7 0 1454.3 0 1396.2 0C1338 0 1280 0 1221.8 0C1163.7 0 1105.3 0 1047.2 0C989 0 931 0 872.8 0C814.7 0 756.3 0 698.2 0C640 0 582 0 523.8 0C465.7 0 407.3 0 349.2 0C291 0 233 0 174.8 0C116.7 0 58.3 0 29.2 0L0 0Z" fill="#2b6666"></path><path d="M0 169L29.2 155C58.3 141 116.7 113 174.8 120.2C233 127.3 291 169.7 349.2 187C407.3 204.3 465.7 196.7 523.8 179.5C582 162.3 640 135.7 698.2 124C756.3 112.3 814.7 115.7 872.8 114.5C931 113.3 989 107.7 1047.2 116C1105.3 124.3 1163.7 146.7 1221.8 147.8C1280 149 1338 129 1396.2 119.8C1454.3 110.7 1512.7 112.3 1570.8 115.7C1629 119 1687 124 1745.2 130.8C1803.3 137.7 1861.7 146.3 1890.8 150.7L1920 155L1920 0L1890.8 0C1861.7 0 1803.3 0 1745.2 0C1687 0 1629 0 1570.8 0C1512.7 0 1454.3 0 1396.2 0C1338 0 1280 0 1221.8 0C1163.7 0 1105.3 0 1047.2 0C989 0 931 0 872.8 0C814.7 0 756.3 0 698.2 0C640 0 582 0 523.8 0C465.7 0 407.3 0 349.2 0C291 0 233 0 174.8 0C116.7 0 58.3 0 29.2 0L0 0Z" fill="#214f4f"></path></svg>